<?xml version="1.0" encoding="UTF-8" standalone="no"?>
<svg
   class="img-fluid"
   id="outputsvg"
   width="2584.5273"
   height="2898.4038"
   viewBox="0 0 25845.273 28984.038"
   version="1.1"
   sodipodi:docname="seed.svg"
   inkscape:version="1.1 (c68e22c387, 2021-05-23)"
   inkscape:export-filename="E:\PROJECT\SITE\PERSONAL\SEED\LOGO\seed.png"
   inkscape:export-xdpi="96"
   inkscape:export-ydpi="96"
   xmlns:inkscape="http://www.inkscape.org/namespaces/inkscape"
   xmlns:sodipodi="http://sodipodi.sourceforge.net/DTD/sodipodi-0.dtd"
   xmlns="http://www.w3.org/2000/svg"
   xmlns:svg="http://www.w3.org/2000/svg">
  <defs
     id="defs14">
    <rect
       x="-119.67065"
       y="2480.4463"
       width="2752.425"
       height="1142.3108"
       id="rect5709" />
  </defs>
  <sodipodi:namedview
     id="namedview12"
     pagecolor="#ffffff"
     bordercolor="#999999"
     borderopacity="1"
     inkscape:pageshadow="0"
     inkscape:pageopacity="0"
     inkscape:pagecheckerboard="0"
     showgrid="false"
     inkscape:zoom="0.25"
     inkscape:cx="792"
     inkscape:cy="1424"
     inkscape:window-width="3840"
     inkscape:window-height="2126"
     inkscape:window-x="-11"
     inkscape:window-y="-11"
     inkscape:window-maximized="1"
     inkscape:current-layer="outputsvg"
     fit-margin-top="100"
     fit-margin-left="150"
     fit-margin-right="150"
     fit-margin-bottom="100" />
  <g
     id="g35250"
     transform="matrix(0.78853666,0,0,0.78853666,3059.3604,806.80851)">
    <g
       id="l3JD1k5va291426VAQsxvKO"
       fill="#4caf50"
       transform="matrix(4.8987471,0,0,4.8987471,-32.463282,-955.19304)">
      <g
         id="g4">
        <path
           id="phhxjuEJG"
           d="m 3620,3006 c -169,-30 -369,-115 -495,-211 -48,-36 -61,-42 -68,-30 -15,27 -27,16 -27,-25 0,-21 6,-43 13,-47 6,-4 19,-21 27,-36 8,-16 24,-39 36,-52 11,-12 24,-30 27,-39 4,-9 11,-16 17,-16 5,0 10,-7 10,-15 0,-8 9,-20 20,-27 11,-7 20,-18 20,-25 0,-7 14,-22 30,-35 17,-12 30,-27 30,-33 0,-12 191,-205 204,-205 4,0 17,-11 28,-25 11,-14 25,-25 31,-25 7,0 18,-9 25,-20 7,-11 16,-20 21,-20 5,0 23,-13 41,-30 18,-16 36,-30 41,-30 4,0 19,-10 33,-23 14,-13 42,-32 63,-43 20,-10 46,-26 56,-35 10,-10 81,-48 157,-85 108,-54 141,-76 156,-101 16,-29 17,-33 1,-57 -10,-14 -30,-32 -46,-40 -27,-14 -33,-13 -102,20 -41,20 -76,39 -79,43 -3,5 -15,11 -27,15 -13,4 -29,13 -36,19 -7,7 -34,23 -60,36 -26,13 -47,28 -47,32 0,5 -7,9 -15,9 -8,0 -15,5 -15,10 0,6 -7,10 -15,10 -8,0 -15,5 -15,10 0,6 -7,10 -15,10 -8,0 -15,5 -15,10 0,6 -5,10 -11,10 -17,0 -146,98 -153,115 -3,8 -12,15 -20,15 -9,0 -23,11 -32,25 -9,14 -22,25 -29,25 -8,0 -35,25 -60,55 -26,30 -54,55 -61,55 -8,0 -19,11 -24,24 -5,13 -34,45 -64,72 -31,26 -56,53 -56,60 0,7 -13,22 -30,34 -16,12 -30,28 -30,35 0,8 -9,19 -20,25 -11,6 -20,17 -20,25 0,8 -5,15 -10,15 -6,0 -14,10 -19,23 -8,21 -57,56 -64,46 -2,-2 -18,-40 -35,-84 -140,-354 -129,-769 29,-1076 227,-438 897,-685 1881,-692 l 246,-2 26,24 c 14,14 30,38 34,55 10,39 -2,483 -17,641 -42,440 -118,742 -253,1008 -67,132 -170,271 -250,339 -112,96 -269,176 -430,218 -69,19 -116,23 -273,26 -128,2 -215,-1 -265,-10 z" />
        <path
           id="psLXmHP1j"
           d="M 1033,2546 C 749,2492 515,2343 368,2123 187,1853 79,1483 29,965 14,807 2,363 12,324 16,307 32,283 46,269 l 26,-24 246,2 c 369,2 725,43 995,113 488,126 794,345 923,660 100,245 117,540 48,820 -40,162 -104,295 -197,412 -25,31 -50,10 -102,-85 -153,-280 -355,-528 -580,-711 -102,-83 -354,-266 -366,-266 -14,0 -66,56 -71,77 -9,34 19,63 155,160 236,168 385,309 526,496 129,173 271,420 271,474 0,19 -3,24 -11,16 -8,-8 -39,2 -112,38 -56,26 -147,60 -202,75 -89,23 -122,27 -295,30 -137,2 -217,-1 -267,-10 z" />
      </g>
    </g>
    <g
       id="l5TXweJN6h6idnM4mmlAz50"
       fill="#388e3c"
       transform="matrix(4.8987471,0,0,4.8987471,-32.463282,-955.19304)">
      <g
         id="g8">
        <path
           id="p1DpEjSxt9"
           d="m 2392,4865 c -48,-21 -62,-64 -62,-187 0,-155 -18,-512 -36,-698 -39,-426 -109,-787 -221,-1140 -51,-159 -143,-390 -172,-431 -10,-14 -33,-54 -51,-88 -50,-100 -152,-262 -231,-368 -91,-123 -307,-339 -418,-418 -210,-150 -246,-180 -265,-219 -15,-31 -17,-43 -7,-58 6,-10 9,-23 6,-28 -4,-6 1,-13 9,-16 9,-3 13,-10 10,-15 -3,-5 0,-9 6,-9 6,0 18,-7 26,-15 9,-8 32,-15 53,-15 31,0 59,16 167,93 388,276 612,521 809,884 28,51 56,93 64,93 7,0 11,6 8,14 -3,8 19,68 48,134 135,302 241,659 305,1027 13,72 26,134 30,138 4,4 19,-39 34,-95 38,-141 107,-329 171,-465 54,-114 171,-318 219,-382 14,-19 26,-45 26,-58 0,-12 9,-27 20,-33 11,-6 18,-15 15,-20 -3,-5 4,-15 15,-23 11,-7 17,-16 14,-20 -3,-3 6,-13 20,-22 14,-10 24,-21 21,-25 -3,-5 10,-21 30,-35 19,-15 33,-31 30,-35 -2,-4 25,-33 60,-64 36,-31 64,-62 62,-68 -1,-7 10,-17 24,-24 14,-8 44,-36 68,-64 23,-27 48,-50 55,-50 8,0 21,-11 30,-25 9,-14 23,-25 32,-25 8,0 17,-7 20,-15 7,-17 136,-115 153,-115 6,0 11,-4 11,-10 0,-5 7,-10 15,-10 8,0 15,-4 15,-10 0,-5 7,-10 15,-10 8,0 15,-4 15,-10 0,-5 7,-10 15,-10 8,0 15,-4 15,-9 0,-4 21,-19 47,-32 26,-13 54,-30 61,-36 7,-7 24,-16 38,-19 13,-3 24,-9 24,-14 0,-13 155,-80 185,-80 37,0 89,31 106,61 15,29 19,99 6,99 -6,0 -8,3 -4,6 11,12 -33,41 -166,108 -75,38 -145,76 -155,85 -9,9 -35,25 -55,35 -21,11 -49,30 -63,43 -14,13 -29,23 -33,23 -5,0 -23,14 -41,30 -18,17 -36,30 -41,30 -5,0 -14,9 -21,20 -7,11 -18,20 -25,20 -6,0 -20,11 -31,25 -11,14 -24,25 -29,25 -13,0 -205,195 -198,202 3,3 -10,17 -30,32 -19,15 -33,31 -30,36 3,4 -7,15 -20,24 -14,9 -23,21 -20,26 3,5 -4,14 -15,20 -11,6 -18,15 -15,20 3,5 -4,14 -15,20 -11,6 -18,15 -15,19 3,5 -2,12 -11,15 -8,3 -13,10 -10,15 3,5 -1,12 -10,15 -8,3 -13,10 -9,15 3,6 -4,15 -15,21 -11,6 -20,17 -20,24 0,8 -26,58 -58,113 -273,460 -420,1037 -448,1758 -7,201 -15,228 -69,251 -42,17 -51,17 -93,-1 z" />
      </g>
    </g>
  </g>
  <text
     xml:space="preserve"
     transform="matrix(22.263678,0,0,22.263678,3517.4719,-37246.494)"
     id="text5707"
     style="font-style:normal;font-weight:normal;font-size:500px;line-height:1.25;font-family:sans-serif;white-space:pre;shape-inside:url(#rect5709);fill:#386d8e;fill-opacity:1;stroke:none"><tspan
       x="-119.66992"
       y="2922.8281"
       id="tspan35304"><tspan
         style="font-family:Candara;-inkscape-font-specification:Candara"
         id="tspan35302">SEED</tspan></tspan></text>
</svg>
